<?xml version="1.0" encoding="utf-8"?>
<!-- Generator: Adobe Illustrator 18.0.0, SVG Export Plug-In . SVG Version: 6.00 Build 0)  -->
<!DOCTYPE svg PUBLIC "-//W3C//DTD SVG 1.1//EN" "http://www.w3.org/Graphics/SVG/1.1/DTD/svg11.dtd">
<svg version="1.1" id="Layer_1" xmlns="http://www.w3.org/2000/svg" xmlns:xlink="http://www.w3.org/1999/xlink" x="0px" y="0px"
	 viewBox="0 0 792 612" enable-background="new 0 0 792 612" xml:space="preserve">
<g>
	<path fill="#ED1F24" d="M367.4,167.1c11.2,0,21.4,4,29.4,10.6c7.2-3.6,14.4-7.2,21.7-10.7c-2.8-6-4.4-12.7-4.4-19.8
		c0-25.5,20.6-46.1,46.1-46.1c19.7,0,36.6,12.4,43.2,29.8c3.3-1.3,6.7-2.5,10-3.7l-62.8-79.6H192.6L321.4,211
		C322.5,186.6,342.7,167.1,367.4,167.1z"/>
	<path fill="#ED1F24" d="M491.7,427l107.7,136.6V390.4c-14,5.5-28,10.8-42.2,15.7C535.6,413.7,513.7,420.7,491.7,427z"/>
	<path fill="#ED1F24" d="M593.9,229.2c-6.5,17.6-23.4,30.1-43.3,30.1c-25.5,0-46.1-20.6-46.1-46.1c0-23.6,17.7-43.1,40.6-45.8
		l-15.9-20.2c-7.9,2.7-15.8,5.5-23.6,8.3c-3.9,21.5-22.7,37.8-45.4,37.8c-9.9,0-19.1-3.2-26.7-8.5c-7.9,3.5-15.7,7.1-23.5,10.8
		c2.2,5.4,3.5,11.3,3.5,17.5c0,25.5-20.6,46.1-46.1,46.1c-2.9,0-5.8-0.3-8.6-0.8l19.2,24.3c7-4.3,15.2-6.8,24.1-6.8
		c25.5,0,46.1,20.6,46.1,46.1c0,12.7-5.1,24.2-13.5,32.6l39.7,50.4c25.8-6.5,51.4-14.2,76.6-22.7c16.2-5.5,32.3-11.3,48.2-17.4
		V236.2L593.9,229.2z M517.3,367.6c-25.5,0-46.1-20.6-46.1-46.1s20.6-46.1,46.1-46.1s46.1,20.6,46.1,46.1S542.7,367.6,517.3,367.6z"
		/>
	<path fill="#FFFFFF" d="M503.4,131c-6.6-17.4-23.4-29.8-43.2-29.8c-25.5,0-46.1,20.6-46.1,46.1c0,7.1,1.6,13.8,4.4,19.8
		c15.8-7.5,31.9-14.7,48-21.4C478.8,140.6,491,135.7,503.4,131z"/>
	<path fill="#FFFFFF" d="M433.5,184.9c7.5,5.3,16.7,8.5,26.7,8.5c22.6,0,41.4-16.3,45.4-37.8c-22.2,8.1-44.1,17-65.7,26.5
		C437.7,183,435.6,184,433.5,184.9z"/>
	<path fill="#FFFFFF" d="M504.5,213.2c0,25.5,20.6,46.1,46.1,46.1c19.9,0,36.8-12.5,43.3-30.1l-48.8-61.8
		C522.2,170.2,504.5,189.6,504.5,213.2z"/>
	<circle fill="#FFFFFF" cx="517.3" cy="321.5" r="46.1"/>
	<path fill="#FFFFFF" d="M448.2,322.2c0-25.5-20.6-46.1-46.1-46.1c-8.8,0-17.1,2.5-24.1,6.8l56.7,71.9
		C443.1,346.4,448.2,334.9,448.2,322.2z"/>
	<path fill="#FFFFFF" d="M367.4,259.3c25.5,0,46.1-20.6,46.1-46.1c0-6.2-1.2-12.1-3.5-17.5c-24.2,11.5-48.1,23.9-71.2,37.5l20,25.3
		C361.6,259.1,364.5,259.3,367.4,259.3z"/>
	<path fill="#FFFFFF" d="M396.8,177.7c-8-6.6-18.2-10.6-29.4-10.6c-24.7,0-44.9,19.4-46.1,43.9l5.1,6.4
		C349.2,203.1,372.8,189.9,396.8,177.7z"/>
	<path fill="#FFFFFF" d="M551.1,382.5c-25.2,8.5-50.8,16.1-76.6,22.7l17.2,21.8c22.1-6.3,43.9-13.2,65.5-20.8
		c14.2-5,28.2-10.2,42.2-15.7v-25.3C583.4,371.2,567.3,377,551.1,382.5z"/>
	<path fill="#FFFFFF" d="M506.3,147.3c0,2.8-0.3,5.6-0.8,8.3c7.8-2.9,15.7-5.6,23.6-8.3l-15.8-20c-3.3,1.2-6.7,2.5-10,3.7
		C505.3,136.1,506.3,141.5,506.3,147.3z"/>
	<path fill="#FFFFFF" d="M410.1,195.7c7.8-3.7,15.6-7.3,23.5-10.8c-6.4-4.5-11.6-10.7-15-17.8c-7.3,3.5-14.5,7-21.7,10.7
		C402.6,182.5,407.2,188.7,410.1,195.7z"/>
	<path fill="#FFFFFF" d="M433.5,184.9c2.1-0.9,4.2-1.9,6.3-2.8c21.6-9.5,43.6-18.4,65.7-26.5c0.5-2.7,0.8-5.5,0.8-8.3
		c0-5.7-1.1-11.2-3-16.3c-12.3,4.7-24.6,9.6-36.8,14.6c-16.2,6.7-32.2,13.9-48,21.4C421.9,174.2,427.1,180.3,433.5,184.9z"/>
	<path fill="#FFFFFF" d="M396.8,177.7c-24.1,12.2-47.6,25.4-70.4,39.7l12.5,15.8c23.1-13.6,47-26,71.2-37.5
		C407.2,188.7,402.6,182.5,396.8,177.7z"/>
</g>
</svg>
