<?xml version="1.0" encoding="UTF-8" standalone="no"?>
<!-- Generator: Adobe Illustrator 18.0.0, SVG Export Plug-In . SVG Version: 6.00 Build 0)  -->

<svg
   xmlns:dc="http://purl.org/dc/elements/1.1/"
   xmlns:cc="http://creativecommons.org/ns#"
   xmlns:rdf="http://www.w3.org/1999/02/22-rdf-syntax-ns#"
   xmlns:svg="http://www.w3.org/2000/svg"
   xmlns="http://www.w3.org/2000/svg"
   xmlns:sodipodi="http://sodipodi.sourceforge.net/DTD/sodipodi-0.dtd"
   xmlns:inkscape="http://www.inkscape.org/namespaces/inkscape"
   version="1.1"
   id="Layer_1"
   x="0px"
   y="0px"
   viewBox="0 0 400 305"
   enable-background="new 0 0 792 612"
   xml:space="preserve"
   inkscape:version="0.91 r13725"
   sodipodi:docname="sylith.svg"
   width="400"
   height="305"><metadata
     id="metadata21"><rdf:RDF><cc:Work
         rdf:about=""><dc:format>image/svg+xml</dc:format><dc:type
           rdf:resource="http://purl.org/dc/dcmitype/StillImage" /><dc:title></dc:title></cc:Work></rdf:RDF></metadata><defs
     id="defs19" /><sodipodi:namedview
     pagecolor="#ffffff"
     bordercolor="#666666"
     borderopacity="1"
     objecttolerance="10"
     gridtolerance="10"
     guidetolerance="10"
     inkscape:pageopacity="0"
     inkscape:pageshadow="2"
     inkscape:window-width="1268"
     inkscape:window-height="833"
     id="namedview17"
     showgrid="false"
     inkscape:zoom="0.38562092"
     inkscape:cx="-210.81355"
     inkscape:cy="306"
     inkscape:window-x="0"
     inkscape:window-y="0"
     inkscape:window-maximized="0"
     inkscape:current-layer="Layer_1" /><g
     id="g3"
     transform="matrix(0.92229652,0,0,0.92183213,-165.36777,-129.35017)"><g
       id="g5"><path
         d="m 396.1,188 c 8.6,47.2 34.3,85.8 77.2,115.8 -29.8,17.1 -55,58.7 -77.2,115.8 -8.6,-47.2 -34.3,-85.8 -77.2,-115.8 42.9,-30 68.7,-68.7 77.2,-115.8 z"
         id="path7"
         inkscape:connector-curvature="0"
         style="fill:#63bc46" /><path
         d="M 396.1,471.1 326.4,337.6 179.3,305.3 c 72.4,26 144.7,78.9 216.8,165.8 z"
         id="path9"
         inkscape:connector-curvature="0"
         style="fill:#63bc46" /><path
         d="M 396.1,471.1 465.8,337.6 613,305.3 c -72.4,26 -144.7,78.9 -216.9,165.8 z"
         id="path11"
         inkscape:connector-curvature="0"
         style="fill:#63bc46" /></g><path
       d="M 396.1,140.4 326.4,274 179.3,306.3 c 72.4,-26 144.7,-78.9 216.8,-165.9 z"
       id="path13"
       inkscape:connector-curvature="0"
       style="fill:#63bc46" /><path
       d="M 396.1,140.4 465.9,274 613,306.3 C 540.6,280.3 468.3,227.4 396.1,140.4 Z"
       id="path15"
       inkscape:connector-curvature="0"
       style="fill:#63bc46" /></g></svg>