<?xml version="1.0" encoding="utf-8"?>
<!-- Generator: Adobe Illustrator 18.0.0, SVG Export Plug-In . SVG Version: 6.00 Build 0)  -->
<!DOCTYPE svg PUBLIC "-//W3C//DTD SVG 1.1//EN" "http://www.w3.org/Graphics/SVG/1.1/DTD/svg11.dtd">
<svg version="1.1" id="Layer_1" xmlns="http://www.w3.org/2000/svg" xmlns:xlink="http://www.w3.org/1999/xlink" x="0px" y="0px"
	 viewBox="0 0 792 612" enable-background="new 0 0 792 612" xml:space="preserve">
<g>
	<polygon fill="none" points="468.8,71.1 465.3,64.3 464.6,65.7 	"/>
	<polygon fill="none" points="463.4,391.3 465.3,395 465.7,394.3 	"/>
	<path fill="#63BC46" d="M464.4,65.4L450.6,48H192.7l119.8,151.9C363.2,170.2,413.8,126.2,464.4,65.4z"/>
	<path fill="#63BC46" d="M576.1,206.9l-41-9L468.8,71.1l-4.2-5.4l-69,132.2l-72.2,15.9l30.4,38.6l41.8,9.2l67.8,129.8l2.3,3
		l69.4-132.8l64.4-14.1v-10.9L576.1,206.9z M465.3,343.5c-8.6-47.2-34.3-85.8-77.2-115.8c42.9-30,68.6-68.6,77.2-115.8
		c8.6,47.2,34.3,85.8,77.2,115.8C512.7,244.8,487.5,286.4,465.3,343.5z"/>
	<path fill="#63BC46" d="M465.8,394.4l133.6,169.4V271.1C554.8,300.4,510.3,340.9,465.8,394.4z"/>
	<path fill="#FFFFFF" d="M465.3,111.9c-8.6,47.2-34.3,85.8-77.2,115.8c42.9,30,68.6,68.6,77.2,115.8c22.2-57.1,47.4-98.7,77.2-115.8
		C499.6,197.7,473.9,159.1,465.3,111.9z"/>
	<polygon fill="#FFFFFF" points="353.8,252.3 463.4,391.3 395.6,261.5 	"/>
	<path fill="#FFFFFF" d="M465.3,395c0.2-0.2,0.3-0.4,0.5-0.6l-0.1-0.1L465.3,395z"/>
	<path fill="#FFFFFF" d="M535.1,261.5l-69.4,132.8l0.1,0.1c44.5-53.5,89-94,133.6-123.4v-23.7L535.1,261.5z"/>
	<path fill="#FFFFFF" d="M465.3,64.3c-0.3,0.4-0.6,0.7-0.9,1.1l0.2,0.3L465.3,64.3z"/>
	<path fill="#FFFFFF" d="M395.6,197.9l69-132.2l-0.2-0.3c-50.6,60.7-101.2,104.7-151.9,134.5l10.9,13.8L395.6,197.9z"/>
	<polygon fill="#FFFFFF" points="576.1,206.9 468.8,71.1 535.1,197.9 	"/>
</g>
</svg>
